<?xml version="1.0" encoding="utf-8"?>
<!-- Generator: Adobe Illustrator 23.0.1, SVG Export Plug-In . SVG Version: 6.00 Build 0)  -->
<svg version="1.1" xmlns="http://www.w3.org/2000/svg" xmlns:xlink="http://www.w3.org/1999/xlink" x="0px" y="0px"
	 width="106.697px" height="153.423px" viewBox="0 0 106.697 153.423" enable-background="new 0 0 106.697 153.423"
	 xml:space="preserve">
<g id="Layer_1">
	<g>
		<path fill="#FFFFFF" d="M26.788,81.559l0.02-4.876l-0.284,0.163v-0.001l0.284-0.162l-0.145-0.084l0.007-0.004l0.132,0.077
			l0.001-0.153l26.403-15.05L50.2,59.709l3,1.748l0.012-2.858l0.011,2.858l3.195-1.861l-3.2,1.872l26.537,15.13l0.152,0.02
			l-0.001-0.055l26.54-15.127l-3.307-1.934l3.301,1.923l0.123-30.681l0.017-0.01l-0.017-0.011v-0.007l0.012,0.006L106.697,0
			L80.071,15.231l-0.012-0.007v0.014l-0.03,0.017l0.03,0.017L79.89,45.947l0.035-0.02l6.674-3.804l-6.662,3.811l-0.012-0.006v0.014
			l-0.03,0.016l0.03,0.018l-0.094,16.774l-0.09-16.738l0.03-0.018l-0.03-0.016v-0.014l-12.871-7.352l-13.546-7.75l0-0.126
			l-0.11,0.063l-0.11-0.063l0,0.126L26.697,45.967l-0.012-0.007v0.014l-0.03,0.017l0.03,0.017l0,0.08L0.298,61.181l-0.012-0.007
			v0.014l-0.029,0.016l0.029,0.017L0.117,91.897l0.197-0.059l-0.132,0.076L0.17,91.906v0.014l-0.03,0.017l0.03,0.018L0,122.629
			l26.691-15.214l-3.183-1.861l3.178,1.85l0.093-23.408 M26.516,76.512l-3.69-2.158l3.69,2.15V76.512z M106.545,30.713l-3.734-2.182
			l3.74,2.178L106.545,30.713z"/>
		<g>
			<polygon fill="#FFFFFF" points="26.587,137.747 26.595,134.472 26.582,137.75 			"/>
			<polyline fill="#FFFFFF" points="79.642,138.132 106.088,122.837 106.218,122.913 106.218,122.762 106.437,122.635 
				106.219,122.512 106.341,92.191 79.786,107.378 79.787,107.298 106.329,92.168 102.85,90.134 106.323,92.159 79.846,76.652 
				79.819,76.667 79.808,76.66 79.808,76.674 79.778,76.691 79.808,76.708 79.638,107.357 53.118,122.528 69.304,131.959 
				53.125,122.741 53.127,122.565 52.913,122.688 26.703,107.47 26.703,107.435 26.673,107.453 26.662,107.448 26.662,107.459 
				0.035,122.693 26.581,138.161 52.982,153.423 			"/>
		</g>
	</g>
</g>
<g id="Layer_2" display="none">
	<polyline display="inline" fill="none" points="27.667,76.652 45.333,86.3 53.236,90.615 	"/>
	<line display="inline" fill="none" x1="79.754" y1="76.599" x2="53.236" y2="90.615"/>
</g>
<g id="Layer_3" display="none">
</g>
</svg>
